# xmcd CD database file
#
# Track frame offsets:
#	150
#	25990
#	55830
#	82372
#	108255
#	133857
#	154645
#	191252
#	216530
#	242322
#	271345
#
# Disc length: 4051 seconds
#
# Revision: 0
# Processed by: cddbd v1.5.2PL0 Copyright (c) Steve Scherf et al.
# Submitted via: CDex 1.70beta2
#
DISCID=970fd10b
DTITLE=Theodros Kassahun - Teddy
DYEAR=2002
DGENRE=World: African
TTITLE0=Lebo
TTITLE1=Wa-zendiro
TTITLE2=Kezebiye
TTITLE3=Tisgereda
TTITLE4=Lomiye
TTITLE5=Guadegna
TTITLE6=Hagere
TTITLE7=Shegnehush
TTITLE8=Tizizbit
TTITLE9=Gud Serachigne
TTITLE10=Wub Aleme
EXTD=YEAR: 2002
EXTT0=
EXTT1=
EXTT2=
EXTT3=
EXTT4=
EXTT5=
EXTT6=
EXTT7=
EXTT8=
EXTT9=
EXTT10=
PLAYORDER=
